<svg xmlns="http://www.w3.org/2000/svg"  viewBox="0 0 100 100" width="100px" height="100px" fill-rule="evenodd" clip-rule="evenodd" baseProfile="basic"><path fill="#fed34f" fill-rule="evenodd" d="M29.996,73.001	c3,0,6.597-5.933,6.923-9.373c-5.995-3.427-9.923-9.147-9.923-15.627c0-10.493,10.304-19,23-19s23,8.507,23,19	c0,10.48-10.304,19-23,19c-1.543,0-3.051-0.133-4.508-0.36C42.36,70.308,38.996,73.001,29.996,73.001z" clip-rule="evenodd"/><path fill="#048" fill-rule="evenodd" d="M0.003,75.001v-4h30	c8.361,0,11.196-2.4,13.968-5.653c0.455-0.547,1.155-0.8,1.847-0.68c1.351,0.213,2.751,0.333,4.185,0.333c11.965,0,21-7.96,21-17	s-9.035-17-21-17c-11.967,0-21,7.96-21,17c0,5.613,3.404,10.747,8.916,13.893c0.681,0.387,1.071,1.147,0.997,1.92	c-0.117,1.24-0.543,2.627-1.152,3.987c-1.243,0.52-2.903,0.947-5.265,1.12c0.107-0.147,0.213-0.293,0.32-0.453	c0.747-1.08,1.339-2.28,1.707-3.333l0.167-0.52l-1.091-0.76c-5.192-3.787-8.599-9.427-8.599-15.853c0-11.933,11.573-21,25-21	c13.425,0,25,9.067,25,21s-11.575,21-25,21c-0.827,0-1.644-0.04-2.449-0.093l-1.272-0.16l-0.604,0.667	c-3.217,3.32-7.259,5.587-15.675,5.587H0.003z M41.681,74.801c1.544-0.733,2.829-1.627,3.943-2.587l1.284-1.213h53.095v4H41.259	C41.401,74.935,41.541,74.868,41.681,74.801z" clip-rule="evenodd"/></svg>